<svg xmlns="http://www.w3.org/2000/svg" version="1.1" xmlns:xlink="http://www.w3.org/1999/xlink" xmlns:svgjs="http://svgjs.dev/svgjs" width="2000" height="1548" viewBox="0 0 2000 1548"><g transform="matrix(1,0,0,1,0.08124135032210233,0.6267206477732543)"><svg viewBox="0 0 319 247" data-background-color="#ffffff" preserveAspectRatio="xMidYMid meet" height="1548" width="2000" xmlns="http://www.w3.org/2000/svg" xmlns:xlink="http://www.w3.org/1999/xlink"><g id="tight-bounds" transform="matrix(1,0,0,1,-0.012957995376382314,-0.09999999999999432)"><svg viewBox="0 0 319.02591599075276 247.2" height="247.2" width="319.02591599075276"><g><svg viewBox="0 0 395.52 306.47210492715584" height="247.2" width="319.02591599075276"><g transform="matrix(1,0,0,1,0,227.62732065626562)"><svg viewBox="0 0 395.52 78.84478427089022" height="78.84478427089022" width="395.52"><g id="textblocktransform"><svg viewBox="0 0 395.52 78.84478427089022" height="78.84478427089022" width="395.52" id="textblock"><g><svg viewBox="0 0 395.52 78.84478427089022" height="78.84478427089022" width="395.52"><g transform="matrix(1,0,0,1,0,0)"><svg width="395.52" viewBox="4.6 -36 183.08 36.5" height="78.84478427089022" data-palette-color="#7c4e29"><path d="M4.6-34.3L26.2-34.3 25.55-29.85 9.5-29.85 9.5-19.4 23.5-19.4 23.5-14.95 9.5-14.95 9.5 0 4.6 0 4.6-34.3ZM53-25.55L53-5Q53-4.1 53.4-3.68 53.8-3.25 54.4-3.25L54.4-3.25Q55.5-3.25 56.65-3.95L56.65-3.95 56.65-0.5Q55.1 0.5 53.5 0.5L53.5 0.5Q50.8 0.5 49.72-0.6 48.65-1.7 48.55-3.7L48.55-3.7Q47.2-1.7 45.07-0.6 42.95 0.5 40.2 0.5L40.2 0.5Q36.35 0.5 33.87-1.78 31.4-4.05 31.4-8.35L31.4-8.35 31.4-25.55 36.1-25.55 36.1-9.2Q36.1-3.25 41.5-3.25L41.5-3.25Q43.25-3.25 44.82-4.2 46.4-5.15 47.35-6.78 48.3-8.4 48.3-10.35L48.3-10.35 48.3-25.55 53-25.55ZM62.75-36L67.45-36 67.45 0 62.75 0 62.75-36ZM76.14-36L80.84-36 80.84 0 76.14 0 76.14-36ZM102.39-34.8Q106.39-34.8 109.39-33.15 112.39-31.5 114.02-28.43 115.64-25.35 115.64-21.15L115.64-21.15 110.74-21.15Q110.74-25.5 108.59-27.93 106.44-30.35 102.39-30.35L102.39-30.35Q97.89-30.35 95.54-27.58 93.19-24.8 93.19-19.4L93.19-19.4 93.19-14.9Q93.19-9.55 95.49-6.75 97.79-3.95 102.29-3.95L102.29-3.95Q106.49-3.95 108.72-6.35 110.94-8.75 110.94-13.05L110.94-13.05 115.64-13.05Q115.64-8.9 114.02-5.85 112.39-2.8 109.39-1.15 106.39 0.5 102.39 0.5L102.39 0.5Q95.74 0.5 92.02-3.58 88.29-7.65 88.29-14.9L88.29-14.9 88.29-19.4Q88.29-26.6 92.02-30.7 95.74-34.8 102.39-34.8L102.39-34.8ZM132.54-26.05Q137.59-26.05 140.06-24.05 142.54-22.05 142.54-18.25L142.54-18.25 142.54-5Q142.54-4.1 142.94-3.68 143.34-3.25 143.94-3.25L143.94-3.25Q145.09-3.25 146.24-3.95L146.24-3.95 146.24-0.5Q144.54 0.5 142.39 0.5L142.39 0.5Q140.24 0.5 139.19-0.73 138.14-1.95 138.04-4.1L138.04-4.1Q134.94 0.5 129.09 0.5L129.09 0.5Q124.89 0.5 122.81-1.33 120.74-3.15 120.74-7.1L120.74-7.1Q120.74-10.2 122.34-11.98 123.94-13.75 127.64-14.55 131.34-15.35 137.84-15.35L137.84-15.35 137.84-17.7Q137.84-20.25 136.34-21.28 134.84-22.3 131.99-22.3L131.99-22.3Q129.29-22.3 127.79-21.25 126.29-20.2 126.29-18.3L126.29-18.3 126.29-17.7 121.69-17.7Q121.59-18.4 121.59-19.35L121.59-19.35Q121.59-21.1 122.99-22.65 124.39-24.2 126.79-25.13 129.19-26.05 132.09-26.05L132.09-26.05 132.54-26.05ZM137.84-11.7Q132.59-11.7 129.91-11.18 127.24-10.65 126.34-9.6 125.44-8.55 125.44-6.7L125.44-6.7Q125.44-3.25 130.69-3.25L130.69-3.25Q132.54-3.25 134.19-4.17 135.84-5.1 136.84-6.8 137.84-8.5 137.84-10.7L137.84-10.7 137.84-11.7ZM163.24-26.05Q166.79-26.05 168.79-23.78 170.79-21.5 170.79-18.05L170.79-18.05 170.64-16.15 166.49-16.15 166.49-17.25Q166.49-18.75 165.74-19.9 164.99-21.05 163.84-21.68 162.69-22.3 161.53-22.3L161.53-22.3Q159.14-22.3 157.78-20.4 156.44-18.5 156.44-15.25L156.44-15.25 156.44 0 151.74 0 151.74-25.55 155.09-25.55 155.78-21.75Q156.09-22.75 157.14-23.75 158.19-24.75 159.76-25.4 161.34-26.05 163.24-26.05L163.24-26.05ZM181.73-33.7L181.73-25.55 187.68-25.55 187.68-21.8 181.73-21.8 181.73-6.55Q181.73-4.75 182.43-3.95 183.13-3.15 184.58-3.15L184.58-3.15Q185.88-3.15 187.68-3.9L187.68-3.9 187.68-0.4Q185.88 0.5 183.03 0.5L183.03 0.5Q180.08 0.5 178.56-1.25 177.03-3 177.03-6.8L177.03-6.8 177.03-21.8 174.23-21.8 174.23-25.55 177.18-25.55 178.78-33.7 181.73-33.7Z" opacity="1" transform="matrix(1,0,0,1,0,0)" fill="#7c4e29" class="wordmark-text-0" data-fill-palette-color="primary" id="text-0"></path></svg></g></svg></g></svg></g></svg></g><g transform="matrix(1,0,0,1,102.55970096340185,0)"><svg viewBox="0 0 190.40059807319628 190.40059807319628" height="190.40059807319628" width="190.40059807319628"><g><svg></svg></g><g id="icon-0"><svg viewBox="0 0 190.40059807319628 190.40059807319628" height="190.40059807319628" width="190.40059807319628"><g><path d="M0 95.2c0-52.578 42.623-95.2 95.2-95.2 52.578 0 95.2 42.623 95.201 95.2 0 52.578-42.623 95.2-95.201 95.201-52.578 0-95.2-42.623-95.2-95.201zM95.2 183.29c48.651 0 88.09-39.439 88.09-88.09 0-48.651-39.439-88.09-88.09-88.09-48.651 0-88.09 39.439-88.09 88.09 0 48.651 39.439 88.09 88.09 88.09z" data-fill-palette-color="accent" fill="#7c4e29" stroke="transparent"></path><ellipse rx="94.24829604623216" ry="94.24829604623216" cx="95.20029903659814" cy="95.20029903659814" fill="#7c4e29" stroke="transparent" stroke-width="0" fill-opacity="1" data-fill-palette-color="accent"></ellipse></g><g transform="matrix(1,0,0,1,47.360767507140885,41.553219810514165)"><svg viewBox="0 0 95.67906305891451 107.29415845216795" height="107.29415845216795" width="95.67906305891451"><g><svg xmlns="http://www.w3.org/2000/svg" xmlns:xlink="http://www.w3.org/1999/xlink" xmlns:a="http://ns.adobe.com/AdobeSVGViewerExtensions/3.0/" version="1.1" x="0" y="0" viewBox="0 0 33.543 37.615" enable-background="new -3 -1.271 40 40" xml:space="preserve" height="107.29415845216795" width="95.67906305891451" class="icon-cg-0" data-fill-palette-color="quaternary" id="cg-0"><path d="M32.824 27.131c0.252-0.145 0.467-0.289 0.719-0.396V14.988H7.566V0H0v25.978c0.576 0.397 1.188 0.793 1.838 1.153 4.287 2.343 9.476 3.494 15.527 3.494C23.42 30.625 28.571 29.474 32.824 27.131L32.824 27.131z" fill="#ffffff" data-fill-palette-color="quaternary"></path><path d="M10.196 37.544c0.901 0 1.622-0.324 2.235-0.937 0.612-0.613 0.937-1.369 0.937-2.234 0-0.901-0.325-1.658-0.937-2.271-0.613-0.612-1.334-0.937-2.235-0.937-0.9 0-1.657 0.324-2.27 0.937s-0.901 1.369-0.901 2.271c0 0.865 0.288 1.621 0.901 2.234C8.54 37.22 9.296 37.544 10.196 37.544L10.196 37.544z" fill="#ffffff" data-fill-palette-color="quaternary"></path><path d="M23.348 37.615c-0.901 0-1.621-0.324-2.233-0.937-0.613-0.612-0.937-1.369-0.937-2.233 0-0.902 0.323-1.658 0.937-2.271 0.612-0.612 1.332-0.937 2.233-0.937 0.899 0 1.657 0.324 2.27 0.937 0.612 0.613 0.901 1.369 0.901 2.271 0 0.864-0.289 1.621-0.901 2.233S24.247 37.615 23.348 37.615L23.348 37.615z" fill="#ffffff" data-fill-palette-color="quaternary"></path></svg></g></svg></g></svg></g></svg></g><g></g></svg></g><defs></defs></svg><rect width="319.02591599075276" height="247.2" fill="none" stroke="none" visibility="hidden"></rect></g></svg></g></svg>